HIERARCHY
ROOT hip
{
	OFFSET 0.000000 0.000000 0.000000 
	CHANNELS 6 Xposition Yposition Zposition Xrotation Zrotation Yrotation
	JOINT abdomen
	{
		OFFSET 0.000000 3.402643 0.000000 
		CHANNELS 3 Xrotation Zrotation Yrotation
		JOINT chest
		{
			OFFSET 0.000000 8.438565 -0.680529 
			CHANNELS 3 Xrotation Zrotation Yrotation
			JOINT neck
			{
				OFFSET 0.000000 10.207942 -0.272212 
				CHANNELS 3 Xrotation Zrotation Yrotation
				JOINT head
				{
					OFFSET 0.000000 3.130431 0.000000 
					CHANNELS 3 Xrotation Zrotation Yrotation
					End Site
					{
						OFFSET 0.000000 3.130435 0.000000 
					}
				}
			}
			JOINT lCollar
			{
				OFFSET 3.470700 6.669187 -0.816635 
				CHANNELS 3 Yrotation Zrotation Xrotation
				JOINT lShldr
				{
					OFFSET 3.198488 0.000000 0.000000 
					CHANNELS 3 Zrotation Yrotation Xrotation
					JOINT lForeArm
					{
						OFFSET 10.139888 0.000000 0.000000 
						CHANNELS 3 Yrotation Zrotation Xrotation
						JOINT lHand
						{
							OFFSET 8.370511 0.000000 0.000000 
							CHANNELS 3 Zrotation Yrotation Xrotation
							End Site
							{
								OFFSET 4.083176 0.000000 0.000000 
							}
						}
					}
				}
			}
			JOINT rCollar
			{
				OFFSET -3.470700 6.669187 -0.816635 
				CHANNELS 3 Yrotation Zrotation Xrotation
				JOINT rShldr
				{
					OFFSET -3.198488 0.000000 0.000000 
					CHANNELS 3 Zrotation Yrotation Xrotation
					JOINT rForeArm
					{
						OFFSET -10.139888 0.000000 0.000000 
						CHANNELS 3 Yrotation Zrotation Xrotation
						JOINT rHand
						{
							OFFSET -8.370511 0.000000 0.000000 
							CHANNELS 3 Zrotation Yrotation Xrotation
							End Site
							{
								OFFSET -4.083176 0.000000 0.000000 
							}
						}
					}
				}
			}
		}
	}
	JOINT lThigh
	{
		OFFSET 5.308129 -1.633274 1.361059 
		CHANNELS 3 Xrotation Zrotation Yrotation
		JOINT lShin
		{
			OFFSET -2.041588 -20.007561 0.000000 
			CHANNELS 3 Xrotation Zrotation Yrotation
			JOINT lFoot
			{
				OFFSET 0.000000 -19.190928 -1.224953 
				CHANNELS 3 Xrotation Yrotation Zrotation
				End Site
				{
					OFFSET 0.000000 -2.449906 4.627600 
				}
			}
		}
	}
	JOINT rThigh
	{
		OFFSET -5.308129 -1.633274 1.361059 
		CHANNELS 3 Xrotation Zrotation Yrotation
		JOINT rShin
		{
			OFFSET 2.041588 -20.007561 0.000000 
			CHANNELS 3 Xrotation Zrotation Yrotation
			JOINT rFoot
			{
				OFFSET 0.000000 -19.190928 -1.224953 
				CHANNELS 3 Xrotation Yrotation Zrotation
				End Site
				{
					OFFSET 0.000000 -2.449906 4.627600 
				}
			}
		}
	}
}
MOTION
Frames: 13
Frame Time: 0.016667
-25.092165 48.325554 99.887184 -4.980633 3.608404 14.717345 27.097717 -3.413847 2.817391 -1.556835 -0.712724 -1.240381 51.013470 8.107759 2.476239 -17.016796 4.074784 -9.467150 6.051132 -7.353094 6.620036 -47.583420 12.372208 15.791958 -62.379074 -1.446575 -2.547588 9.039730 47.226044 8.202541 -6.474262 11.017198 9.171936 46.722225 -7.425575 10.120716 62.358986 1.434666 -2.457843 -35.702648 -69.671791 28.843014 -4.008841 8.586926 -9.813235 19.808033 -4.556416 -2.568171 -7.583593 -4.229111 -12.688968 -4.559095 -8.187867 -14.075572 21.923798 4.511683 1.619907 0.496741 4.521255 9.637785 
-24.952003 48.323612 100.002007 -5.148990 3.616552 14.795921 26.915791 -3.442874 2.895373 -1.554932 -0.800594 -1.240386 51.013470 8.107759 2.476239 -17.615482 4.170039 -9.556200 6.190109 -7.427256 6.707884 -47.402969 12.273487 15.853199 -62.202145 -1.458534 -2.539629 9.307840 47.567848 8.628827 -6.422319 10.933680 9.080922 46.709064 -7.327690 10.194570 62.185177 1.259500 -2.365321 -36.465675 -69.068398 29.353697 -3.641201 8.464954 -9.924717 19.978434 -4.560553 -2.552845 -7.716369 -4.369677 -12.934436 -4.051814 -8.354815 -14.341150 21.832220 4.520871 1.614494 0.328001 4.618223 9.592159 
-24.815243 48.325348 100.114388 -5.421166 3.626319 14.776428 26.743551 -3.588728 3.033016 -1.554932 -0.800594 -1.240386 51.013470 8.107759 2.476239 -18.130680 4.342129 -9.656459 6.327927 -7.512864 6.776423 -47.195656 12.147931 16.089121 -62.025322 -1.461774 -2.535963 9.717839 47.817257 8.876688 -6.245145 10.753812 9.077561 46.631413 -7.242772 10.179406 62.096870 1.252231 -2.367581 -38.981850 -68.143311 30.528835 -3.378377 8.466193 -10.102657 20.052483 -4.647655 -2.485222 -7.844467 -4.229969 -12.710662 -3.602469 -8.440804 -14.535635 21.734013 4.511259 1.614770 0.279879 4.718720 9.550067 
-24.678467 48.327080 100.226669 -5.690235 3.645368 14.767306 26.561382 -3.724774 3.170695 -1.554932 -0.800594 -1.240386 51.013470 8.107759 2.476239 -18.645716 4.514235 -9.747081 6.457566 -7.598211 6.855943 -46.986141 12.034268 16.321505 -61.848484 -1.464946 -2.532061 10.108099 48.078651 9.107695 -6.067733 10.584622 9.064676 46.545204 -7.149618 10.172371 62.008862 1.263338 -2.365228 -41.332069 -67.195671 31.541260 -3.124566 8.475867 -10.270600 20.138439 -4.725385 -2.417046 -7.986727 -4.078996 -12.460517 -3.173183 -8.519340 -14.730496 21.646866 4.501147 1.586582 0.231342 4.832684 9.471452 
-24.540392 48.328907 100.328484 -5.957436 3.653825 14.825772 26.385593 -3.841599 3.220058 -1.554932 -0.800594 -1.240386 51.013470 8.107759 2.476239 -18.823439 4.693766 -9.984585 6.646026 -7.682978 6.864667 -46.850803 12.041500 16.126663 -61.760490 -1.476263 -2.530022 10.351552 48.231804 9.613891 -6.024405 10.488075 9.120729 46.528778 -7.142199 10.250914 61.920952 1.265811 -2.367411 -42.799049 -66.354546 31.646391 -2.848569 8.363554 -10.462405 20.330542 -4.746207 -2.250637 -8.209363 -3.862823 -12.571377 -2.733822 -8.575805 -15.003692 21.634344 4.510667 1.606889 0.021089 5.173789 9.344319 
-24.402485 48.330868 100.430382 -6.212340 3.671711 14.884862 26.209484 -3.948622 3.279177 -1.554932 -0.800594 -1.240386 51.013470 8.107759 2.476239 -18.992069 4.873102 -10.212439 6.824826 -7.768846 6.873456 -46.706150 12.047029 15.933947 -61.672184 -1.469210 -2.532557 10.606064 48.394348 10.134804 -5.980690 10.402285 9.169037 46.511570 -7.141821 10.336121 61.832939 1.276890 -2.364954 -44.184437 -65.531898 31.669668 -2.595015 8.276625 -10.633774 20.507305 -4.742719 -2.099033 -8.440247 -3.682064 -12.666505 -2.294724 -8.634240 -15.277675 21.642439 4.520175 1.609300 -0.219046 5.508941 9.219329 
-24.281992 48.347252 100.542572 -6.297717 3.681148 14.885488 26.038246 -4.006438 3.445465 -1.554932 -0.800594 -1.240386 51.013470 8.107759 2.476239 -18.724070 5.045476 -10.254712 7.001368 -7.767437 6.871126 -46.565205 12.205828 16.202040 -61.672184 -1.469210 -2.532557 10.978604 48.571873 10.149311 -6.160279 10.402687 9.176108 46.287613 -7.290423 10.593230 62.008862 1.263338 -2.365228 -45.237255 -65.379585 31.426462 -2.350505 8.235808 -10.734940 20.589417 -4.735518 -2.095287 -8.597910 -3.737135 -12.446980 -1.963222 -8.740088 -15.266895 21.774305 4.488845 1.438951 -0.174790 5.465416 9.282255 
-24.161692 48.363655 100.654663 -6.396002 3.681315 14.875746 25.866667 -4.064201 3.612437 -1.554932 -0.800594 -1.240386 51.013470 8.107759 2.476239 -18.466986 5.217643 -10.306828 7.168225 -7.767190 6.870187 -46.415688 12.353764 16.468443 -61.681881 -1.468781 -2.531762 11.327320 48.746078 10.132134 -6.328455 10.405643 9.175450 46.061981 -7.443854 10.844496 62.185177 1.259500 -2.365321 -46.259445 -65.231316 31.142952 -2.115947 8.185293 -10.826717 20.679535 -4.735909 -2.102497 -8.742546 -3.803401 -12.199690 -1.621421 -8.845037 -15.277653 21.883081 4.469720 1.288560 -0.134471 5.436380 9.361976 
-24.062773 48.382473 100.759186 -6.569901 3.690921 14.866004 25.689680 -4.180929 3.661834 -1.556160 -0.800619 -1.152504 51.013470 8.107759 2.476239 -17.780054 5.401528 -10.230843 7.216323 -7.675271 6.935396 -46.213818 12.593396 16.573904 -61.937336 -1.473124 -2.534041 11.470799 48.663643 9.916330 -6.460050 10.498436 9.116287 46.007202 -7.594855 11.122926 62.361252 1.249979 -2.461339 -46.712681 -65.315582 30.361980 -1.920268 8.047633 -10.823317 20.781307 -4.746489 -2.297763 -8.765930 -3.474978 -12.209104 -1.279828 -8.984736 -15.537297 21.781527 4.506268 1.423297 0.108863 5.515428 9.185239 
-23.964172 48.401188 100.863251 -6.744434 3.700694 14.846516 25.522253 -4.297641 3.711241 -1.557388 -0.800643 -1.064622 51.013470 8.107759 2.476239 -17.100676 5.575878 -10.155878 7.265503 -7.582012 7.011521 -46.010704 12.832355 16.683008 -62.202145 -1.458534 -2.539629 11.603967 48.595436 9.693027 -6.591704 10.580751 9.066655 45.952156 -7.745483 11.402874 62.537464 1.248502 -2.551595 -47.164917 -65.403557 29.578257 -1.726282 7.905087 -10.810546 20.859621 -4.723452 -2.504547 -8.774153 -3.129765 -12.241905 -0.927924 -9.111429 -15.826686 21.691677 4.526861 1.594895 0.338741 5.581725 8.994931 
-23.899597 48.409687 100.918274 -6.744434 3.700694 14.846516 25.432640 -4.404543 3.770395 -1.557388 -0.800643 -1.064622 51.013470 8.107759 2.476239 -16.411139 5.748554 -10.178193 7.402678 -7.577267 7.079465 -46.020836 13.019530 16.604506 -62.379074 -1.446575 -2.547588 11.574106 48.600220 9.408228 -6.684277 10.665118 9.069040 45.948181 -7.829144 11.400803 62.708450 1.333288 -2.555601 -47.247990 -65.650032 29.032293 -1.560552 7.826481 -10.834834 20.867069 -4.658257 -2.386823 -8.897673 -3.356696 -12.367488 -0.840528 -9.124577 -15.750261 21.661674 4.575544 1.610667 0.095313 5.770063 8.980963 
-23.835184 48.418034 100.972519 -6.744434 3.700694 14.846516 25.342924 -4.521223 3.819819 -1.557388 -0.800643 -1.064622 51.013470 8.107759 2.476239 -15.720724 5.921386 -10.190866 7.530171 -7.573414 7.146194 -46.023335 13.197447 16.535221 -62.555866 -1.443188 -2.550756 11.538681 48.596207 9.121076 -6.770648 10.759489 9.081126 45.943203 -7.919812 11.406783 62.888802 1.399130 -2.562765 -47.357491 -65.883072 28.510389 -1.395581 7.762735 -10.838953 20.897114 -4.576661 -2.288196 -9.029195 -3.568963 -12.497402 -0.752816 -9.147365 -15.664800 21.662088 4.624662 1.609401 -0.155889 5.981539 8.997238 
-23.787975 48.409496 100.945610 -6.654131 3.616877 14.776428 25.257349 -4.578781 3.986851 -1.557388 -0.800643 -1.064622 51.013470 8.107759 2.476239 -15.470868 5.920660 -10.230721 7.530171 -7.573414 7.146194 -45.896637 13.267715 16.711967 -62.644257 -1.441471 -2.552251 11.739794 48.508575 9.401688 -6.770648 10.759489 9.081126 46.289063 -7.974742 10.902818 62.884876 1.311327 -2.562760 -47.460480 -66.193024 29.003784 -1.481438 7.745726 -11.016507 20.798750 -4.570379 -2.269637 -9.024837 -3.367084 -12.670990 -1.026709 -9.180952 -15.730827 21.764221 4.580202 1.512337 0.016727 5.951255 8.805781 
